<svg
	xmlns="http://www.w3.org/2000/svg"
	xmlns:xlink="http://www.w3.org/1999/xlink" version="1.1" x="0px" y="0px" viewBox="0 0 30 37.5" xml:space="preserve">
	<g transform="translate(-330 -255)">
		<g
			xmlns="http://www.w3.org/2000/svg"
			xmlns:xlink="http://www.w3.org/1999/xlink">
			<path fill="#518CA3" d="M353.955,264.045c0,0-3.836-0.549-6.576,2.191c-2.741,2.74-0.549,4.934-0.549,4.934s2.193,2.191,4.933-0.549    C354.504,267.881,353.955,264.045,353.955,264.045z"/>
			<path fill='#518CA3' d="M341.621,276.236c-2.74-2.74-6.576-2.191-6.576-2.191s-0.549,3.836,2.192,6.576c2.74,2.74,4.933,0.549,4.933,0.549    S344.362,278.977,341.621,276.236z"/>
			<path fill='#518CA3' d="M349.667,287c0.829-1.66,1.657-5.406-2.62-11.381c-5.993-8.371,0-15.619,0-15.619s-9,6-4,15    c3.574,6.434,1.017,10.31-0.732,12H332v1h9.047H349h9v-1H349.667z"/>
		</g>
	</g>
</svg>