<svg
	xmlns="http://www.w3.org/2000/svg"
	xmlns:xlink="http://www.w3.org/1999/xlink" version="1.1" x="0px" y="0px" viewBox="0 0 100 100" enable-background="new 0 0 100 100" xml:space="preserve">
	<path d="M7.5,52.5H15v40c0,1.4,1.1,2.5,2.5,2.5h65c1.4,0,2.5-1.1,2.5-2.5v-40h7.5c2.2,0,3.3-2.7,1.8-4.3L51.8,5.7c-1-1-2.6-1-3.5,0  L5.7,48.2C4.2,49.8,5.3,52.5,7.5,52.5z M50,11l36.5,36.5h-4c-1.4,0-2.5,1.1-2.5,2.5v40H20V50c0-1.4-1.1-2.5-2.5-2.5h-4L50,11z"/>
	<path d="M27.5,52.5H33l4.5,18.1c0.3,1.1,1.3,1.9,2.4,1.9h27.5c1.1,0,2.1-0.8,2.4-1.9l5-20c0.8-3.1-4.1-4.3-4.9-1.2l-4.5,18.1H42  L37.6,50l-0.2-0.6c-0.3-1.1-1.3-1.9-2.4-1.9h-7.5C24.3,47.5,24.3,52.5,27.5,52.5z"/>
	<path d="M42.5,75c-2.8,0-5,2.2-5,5s2.2,5,5,5s5-2.2,5-5S45.3,75,42.5,75z"/>
	<path d="M65,75c-2.8,0-5,2.2-5,5s2.2,5,5,5s5-2.2,5-5S67.8,75,65,75z"/>
	<path d="M52,61.8c1,1,2.6,1,3.5,0l10-10c2.3-2.3-1.3-5.8-3.5-3.5L56.3,54V40c0-3.2-5-3.2-5,0v14l-5.7-5.7c-2.3-2.3-5.8,1.3-3.5,3.5  L52,61.8z"/>
</svg>